<?xml version="1.0" encoding="UTF-8" standalone="no"?>
<!DOCTYPE svg PUBLIC "-//W3C//DTD SVG 1.1//EN" "http://www.w3.org/Graphics/SVG/1.1/DTD/svg11.dtd">
<svg width="100%" height="100%" viewBox="0 0 366 367" version="1.1" xmlns="http://www.w3.org/2000/svg" xmlns:xlink="http://www.w3.org/1999/xlink" xml:space="preserve" xmlns:serif="http://www.serif.com/" style="fill-rule:evenodd;clip-rule:evenodd;stroke-linecap:round;stroke-linejoin:round;stroke-miterlimit:1.5;">
    <g transform="matrix(1,0,0,1,-1225.75,-715.75)">
        <g>
            <g transform="matrix(0.703037,0,0,0.703037,424.387673,273.110799)">
                <ellipse cx="1400" cy="890.5" rx="168" ry="168.5" style="fill:none;stroke:black;stroke-width:11.85px;"/>
            </g>
            <g transform="matrix(0.527278,0,0,0.527278,670.450665,429.624438)">
                <ellipse cx="1400" cy="890.5" rx="168" ry="168.5" style="fill:none;stroke:black;stroke-width:15.8px;"/>
            </g>
            <g transform="matrix(0.597582,0,0,0.597582,572.025468,367.018982)">
                <ellipse cx="1400" cy="890.5" rx="168" ry="168.5" style="fill:none;stroke:black;stroke-width:1.74px;"/>
            </g>
            <g transform="matrix(0.632733,0,0,0.632733,522.812869,335.716254)">
                <ellipse cx="1400" cy="890.5" rx="168" ry="168.5" style="fill:none;stroke:black;stroke-width:1.65px;"/>
            </g>
            <g transform="matrix(0.667885,0,0,0.667885,473.600271,304.413526)">
                <ellipse cx="1400" cy="890.5" rx="168" ry="168.5" style="fill:none;stroke:black;stroke-width:1.56px;"/>
            </g>
            <g transform="matrix(0.56243,0,0,0.56243,621.238066,398.32171)">
                <ellipse cx="1400" cy="890.5" rx="168" ry="168.5" style="fill:none;stroke:black;stroke-width:1.85px;"/>
            </g>
            <g transform="matrix(1.051426,0,0,1.051426,-63.357368,-37.129886)">
                <ellipse cx="1400" cy="890.5" rx="168" ry="168.5" style="fill:none;stroke:black;stroke-width:11.89px;"/>
            </g>
        </g>
        <g>
            <g transform="matrix(0.762002,0,0,2.147459,293.082618,-687.958482)">
                <ellipse cx="1327.5" cy="787.5" rx="15.5" ry="5.5" style="stroke:black;stroke-width:5.17px;"/>
            </g>
            <g transform="matrix(0.762002,0,0,2.147459,397.082618,-644.958482)">
                <ellipse cx="1327.5" cy="787.5" rx="15.5" ry="5.5" style="stroke:black;stroke-width:5.17px;"/>
            </g>
            <g transform="matrix(0.762002,0,0,2.147459,397.082618,-938.958482)">
                <ellipse cx="1327.5" cy="787.5" rx="15.5" ry="5.5" style="stroke:black;stroke-width:5.17px;"/>
            </g>
            <g transform="matrix(0.762002,0,0,2.147459,502.082618,-896.958482)">
                <ellipse cx="1327.5" cy="787.5" rx="15.5" ry="5.5" style="stroke:black;stroke-width:5.17px;"/>
            </g>
            <g transform="matrix(0.762002,0,0,2.147459,294.082618,-894.958482)">
                <ellipse cx="1327.5" cy="787.5" rx="15.5" ry="5.5" style="stroke:black;stroke-width:5.17px;"/>
            </g>
            <g transform="matrix(0.762002,0,0,2.147459,251.082618,-791.958482)">
                <ellipse cx="1327.5" cy="787.5" rx="15.5" ry="5.5" style="stroke:black;stroke-width:5.17px;"/>
            </g>
            <g transform="matrix(0.762002,0,0,2.147459,543.082618,-791.958482)">
                <ellipse cx="1327.5" cy="787.5" rx="15.5" ry="5.5" style="stroke:black;stroke-width:5.17px;"/>
            </g>
            <g transform="matrix(0.762002,0,0,2.147459,500.082618,-688.958482)">
                <ellipse cx="1327.5" cy="787.5" rx="15.5" ry="5.5" style="stroke:black;stroke-width:5.17px;"/>
            </g>
        </g>
    </g>
</svg>
